<svg id="flat" height="512" viewBox="0 0 512 512" width="512" xmlns="http://www.w3.org/2000/svg"><path d="m328 152h48v24h-48z" fill="#ffa100"/><path d="m336 176v16l-8 8v64a24 24 0 0 0 24 24 24 24 0 0 0 24-24v-64l-8-8v-16z" fill="#f78e00"/><path d="m360 152h-16v-128a8 8 0 0 1 8-8 8 8 0 0 1 8 8z" fill="#8098ab"/><path d="m248 216v-32l-112-48-8 24z" fill="#ffe28f"/><path d="m224 336v-72l-96-80v-24l128 56 80 120z" fill="#ffb401"/><path d="m296 392h-112l-16-24v-80h96l32 48z" fill="#ffcc4d"/><path d="m464 224 24 16v32l-16 16h-8v-32l-16-8-16 8v32h-8l-16-16v-32l24-16v-136l-24-16v-32l16-16h8v32l16 8 16-8v-32h8l16 16v32l-24 16z" fill="#8098ab"/><path d="m296 336h112v88h-160v-56z" fill="#ffc431"/><rect fill="#8098ab" height="64" rx="32" transform="matrix(-1 0 0 -1 512 912)" width="256" x="128" y="424"/><path d="m144 128-16 32v24l-56 104h-32l6.64-24.91 25.36-95.09 48-40z" fill="#ffc431"/><path d="m72 288 24 32v24l24 16v16h-56a40 40 0 0 1 -40-40v-24l16-24z" fill="#8098ab"/><path d="m72 168-25.36 95.09-22.64-15.09 16-80z" fill="#ffe28f"/><g fill="#718799"><path d="m184 448h16v16h-16z"/><path d="m152 448h16v16h-16z"/><path d="m216 448h16v16h-16z"/><path d="m248 448h16v16h-16z"/><path d="m280 448h16v16h-16z"/><path d="m312 448h16v16h-16z"/><path d="m344 448h16v16h-16z"/></g><path d="m368 352h16v16h-16z" fill="#ffb401"/><path d="m248 384h160v40h-160z" fill="#ffb401"/><path d="m168 344h24a24 24 0 0 0 24-24v-32h-48z" fill="#9ce6ed"/></svg>