<svg id="flat" height="512" viewBox="0 0 512 512" width="512" xmlns="http://www.w3.org/2000/svg"><path d="m408 24h-80v240h-80v160h240v-400z" fill="#d69651"/><path d="m88 400 16-24h32v48h-48z" fill="#ffb401"/><path d="m144 424h-16v-80h-35.56641l-45.64941 73.04-13.56836-8.48047 48-76.7998a7.99993 7.99993 0 0 1 6.78418-3.75973h48a8.00008 8.00008 0 0 1 8 8z" fill="#ffe28f"/><path d="m192 472v-48h-72l-16-24h-80v72z" fill="#ffc431"/><circle cx="72" cy="464" fill="#62798c" r="24"/><path d="m72 496a32 32 0 1 1 32-32 32.03635 32.03635 0 0 1 -32 32zm0-48a16 16 0 1 0 16 16 16.01833 16.01833 0 0 0 -16-16z" fill="#8098ab"/><circle cx="152" cy="472" fill="#62798c" r="16"/><path d="m152 496a24 24 0 1 1 24-24 24.02718 24.02718 0 0 1 -24 24zm0-32a8 8 0 1 0 8 8 8.00917 8.00917 0 0 0 -8-8z" fill="#8098ab"/><path d="m192 320h32v152h-32z" fill="#ffb401"/><path d="m248 448v-64h-24v88h80v-24z" fill="#ffe28f"/><g fill="#b1712c"><path d="m248 424h240v24h-240z"/><path d="m280 344h16v32h-16z"/><path d="m360 344h16v32h-16z"/><path d="m440 344h16v32h-16z"/><path d="m280 264h16v32h-16z"/><path d="m360 264h16v32h-16z"/><path d="m440 264h16v32h-16z"/></g><path d="m216 184h80v80h-80z" fill="#c78640"/><path d="m248 184h16v32h-16z" fill="#a36522"/><path d="m240 160-56 56-56-56 22.34-22.34 11.32-11.32 22.34-22.34z" fill="#d69651"/><path d="m157.996 127.858h16.009v28.284h-16.009z" fill="#b1712c" transform="matrix(.707 -.707 .707 .707 -51.789 158.972)"/><path d="m360 184h16v32h-16z" fill="#b1712c"/><path d="m360 104h16v32h-16z" fill="#b1712c"/><path d="m440 104h16v32h-16z" fill="#b1712c"/><path d="m360 24h16v32h-16z" fill="#b1712c"/><path d="m440 24h16v32h-16z" fill="#b1712c"/><path d="m440 184h16v32h-16z" fill="#b1712c"/><path d="m200 40h16v32h-16z" fill="#d1e4ff"/><path d="m227.029 68h33.941v16h-33.941z" fill="#d1e4ff" transform="matrix(.707 -.707 .707 .707 17.731 194.804)"/><path d="m56 168h32v16h-32z" fill="#d1e4ff"/><path d="m75.029 204h33.941v16h-33.941z" fill="#d1e4ff" transform="matrix(.707 -.707 .707 .707 -122.964 127.156)"/><path d="m336 336v-64h64v64zm152-224v-16h-72v-72h-16v72h-72v16h72v64h-72v16h72v64h-72a8.00008 8.00008 0 0 0 -8 8v72h-72v16h72v72h16v-72h64v72h16v-72h72v-16h-72v-64h72v-16h-72v-64h72v-16h-72v-64z" fill="#c78640"/></svg>