<svg id="flat" height="512" viewBox="0 0 512 512" width="512" xmlns="http://www.w3.org/2000/svg"><path d="m112 24h136v120h-136z" fill="#ffb401"/><path d="m112 104h136v40h-136z" fill="#ffa100"/><path d="m320 96v48h-72v-80h40a31.97287 31.97287 0 0 1 32 32z" fill="#f78e00"/><path d="m352 312h96v144h-96z" fill="#718799"/><path d="m312 312v8a32 32 0 0 0 32 32h8v-40z" fill="#ffceb6"/><path d="m352 216a40 40 0 0 0 -40 40v56h176v-56a40 40 0 0 0 -40-40z" fill="#548aff"/><path d="m429.65674 242.34326-24-24a8 8 0 0 0 -11.31348 0l-24 24 11.31348 11.31348 10.34326-10.34326v44.68652h16v-44.68652l10.34326 10.34326z" fill="#4f7ff7"/><path d="m144 424h96v64h-96z" fill="#ffb401"/><path d="m24 408h120v80h-120z" fill="#ffc431"/><path d="m176 456h32v32h-32z" fill="#ffa100"/><path d="m64 440h32v48h-32z" fill="#ffa100"/><path d="m192.401 424-16-104h-16l-16 104z" fill="#ffd873"/><path d="m136.40148 224-5.84767 14.61917a35.66908 35.66908 0 0 0 11.71646 41.78242 35.669 35.669 0 0 1 13.20264 19.88424l4.92857 19.71417h16l24.423-24.423a25.39985 25.39985 0 0 0 2.35947-33.20032 25.39986 25.39986 0 0 1 -.81408-29.32922l6.03161-9.04746z" fill="#d1e4ff"/><path d="m136 408v-40l-56 40z" fill="#ffd873"/><path d="m80 408v-40l-56 40z" fill="#ffd873"/><path d="m320 96v8h-32v-16h30.99a32.00184 32.00184 0 0 1 1.01 8z" fill="#8be0e8"/><circle cx="280" cy="144" fill="#e0edff" r="16"/><path d="m280 168a24 24 0 1 1 24-24 24.02687 24.02687 0 0 1 -24 24zm0-32a8 8 0 1 0 8 8 8.00917 8.00917 0 0 0 -8-8z" fill="#718799"/><circle cx="160" cy="144" fill="#e0edff" r="16"/><path d="m160 168a24 24 0 1 1 24-24 24.02687 24.02687 0 0 1 -24 24zm0-32a8 8 0 1 0 8 8 8.00917 8.00917 0 0 0 -8-8z" fill="#718799"/><path d="m64 312h-16v-240a7.99977 7.99977 0 0 1 8-8h32v16h-24z" fill="#d1e4ff"/><path d="m48 328h16v16h-16z" fill="#d1e4ff"/><path d="m424 176v-24a8 8 0 0 0 -8-8h-16a24 24 0 0 0 -24 24v8z" fill="#b1712c"/><path d="m376 176v24a24 24 0 0 0 24 24 24 24 0 0 0 24-24v-24z" fill="#ffceb6"/><path d="m360 312h-16v-48a8 8 0 0 1 8-8 8 8 0 0 1 8 8z" fill="#4f7ff7"/><path d="m448 352h8a32 32 0 0 0 32-32v-8h-40z" fill="#ffceb6"/><path d="m456 312h-16v-48a8 8 0 0 1 8-8 8 8 0 0 1 8 8z" fill="#4f7ff7"/><g fill="#d1e4ff"><path d="m352 456-24 24v8h72v-32z"/><path d="m448 456 24 24v8h-72v-32z"/><path d="m416 120h-16v-40h-24v-16h32a7.99977 7.99977 0 0 1 8 8z"/><path d="m344 64h16v16h-16z"/><path d="m312 376h16v16h-16z"/><path d="m216 376h80v16h-80z"/></g><path d="m408 352a8 8 0 0 0 -16 0v104h16z" fill="#62798c"/><path d="m392 456h16v32h-16z" fill="#bed3f7"/></svg>