<svg id="Layer_1" enable-background="new 0 0 512 512" height="512" viewBox="0 0 512 512" width="512" xmlns="http://www.w3.org/2000/svg"><g><g><g><g><g><path d="m384 245.333h32c44.183 0 80-35.817 80-80v-24c0-4.418-3.582-8-8-8h-72v-32.066c0-17.637-14.297-31.934-31.934-31.934h-80.066c-8.837 0-16 7.163-16 16v48h-96v298.667h288l-50.745-50.745c-28.976-28.976-45.255-68.276-45.255-109.255z" fill="#fab991"/></g></g></g></g><g><g><g><g><g><path d="m128 368h-64c-8.837 0-16-7.163-16-16v-240h96v240c0 8.837-7.163 16-16 16z" fill="#5ad7ff"/></g></g></g></g><g><g><g><g><path d="m48 112v16h32c8.837 0 16 7.163 16 16v208c0 8.837-7.163 16-16 16h48c8.837 0 16-7.163 16-16v-240z" fill="#23aae6"/></g></g></g></g><g><g><g><g><g><path d="m48 304v48c0 8.837 7.163 16 16 16h64c8.837 0 16-7.163 16-16v-48z" fill="#ffd205"/></g></g></g></g><g><g><g><g><path d="m96 304v48c0 8.837-7.163 16-16 16h48c8.837 0 16-7.163 16-16v-48z" fill="#faa019"/></g></g></g></g></g><g><g><g><g><path d="m160 80h-128c-8.837 0-16 7.163-16 16 0 8.837 7.163 16 16 16h128c8.837 0 16-7.163 16-16 0-8.837-7.163-16-16-16z" fill="#5ad7ff"/></g></g></g></g><g><g><g><g><path d="m144 32h-96c-8.837 0-16 7.163-16 16 0 8.837 7.163 16 16 16h96c8.837 0 16-7.163 16-16 0-8.837-7.163-16-16-16z" fill="#5ad7ff"/></g></g></g></g><g><g><g><g><path d="m64 64h64v16h-64z" fill="#23aae6"/></g></g></g></g><g><g><g><g><path d="m112 400h-32c-8.837 0-16-7.163-16-16v-16h64v16c0 8.837-7.163 16-16 16z" fill="#faa019"/></g></g></g></g><g><g><g><g><path d="m96 480c-6.955-10.433-10.667-22.691-10.667-35.23v-44.77h21.333v44.77c.001 12.539-3.711 24.797-10.666 35.23z" fill="#d7e6f0"/></g></g></g></g><g><g><g><g><path d="m85.333 400v13.333c5.891 0 10.667 4.776 10.667 10.667v56c6.955-10.433 10.667-22.691 10.667-35.229v-44.771z" fill="#a5c3dc"/></g></g></g></g><g><g><g><g><path d="m72 352c-4.418 0-8-3.582-8-8v-192c0-4.418 3.582-8 8-8s8 3.582 8 8v192c0 4.418-3.582 8-8 8z" fill="#a5ffff"/></g></g></g></g><g><g><g><g><path d="m72 352c-4.418 0-8-3.582-8-8v-40h16v40c0 4.418-3.582 8-8 8z" fill="#ffff50"/></g></g></g></g></g><g><g><g><g><path d="m383.934 133.333h32.066v-32.066c0-17.637-14.297-31.934-31.934-31.934h-32.066v32.066c0 17.637 14.297 31.934 31.934 31.934z" fill="#f0915a"/></g></g></g></g><g><g><g><g><path d="m288 245.333c0-25.037 20.296-45.333 45.333-45.333h82.667c26.51 0 48-21.49 48-48v-10.667c0-4.418 3.582-8 8-8h16c4.418 0 8 3.582 8 8v24c0 44.183-35.817 80-80 80z" fill="#f0915a"/></g></g></g></g><g><g><g><g><path d="m224 229.333c-35.346 0-64-28.654-64-64 0-53.019 42.981-96 96-96h48c-8.837 0-16 7.163-16 16v80c0 35.347-28.654 64-64 64z" fill="#463c4b"/></g></g></g></g><g><g><g><g><circle cx="320" cy="109.333" fill="#463c4b" r="16"/></g></g></g></g><g><g><g><g><circle cx="384" cy="109.333" fill="#463c4b" r="16"/></g></g></g></g><g><g><g><g><path d="m480 165.333c8.837 0 16-7.163 16-16v-8c0-4.418-3.582-8-8-8h-16c-4.418 0-8 3.582-8 8v8c0 8.837 7.163 16 16 16z" fill="#463c4b"/></g></g></g></g><g><g><g><g><path d="m192 245.333h192v26.667h-192z" fill="#5ad7ff"/></g></g></g></g><g><g><g><g><path d="m288 245.333h96v26.667h-96z" fill="#23aae6"/></g></g></g></g><g><g><g><g><path d="m384 272h-96v160h192l-50.745-50.745c-28.976-28.976-45.255-68.276-45.255-109.255z" fill="#f0915a"/></g></g></g></g></g></svg>