<svg id="Capa_1" enable-background="new 0 0 512 512" height="512" viewBox="0 0 512 512" width="512" xmlns="http://www.w3.org/2000/svg"><g><g><path d="m186.52 38.774c-4.204 0-7.611-3.408-7.611-7.611v-23.552c0-4.204 3.407-7.611 7.611-7.611s7.611 3.408 7.611 7.611v23.551c.001 4.204-3.407 7.612-7.611 7.612z" fill="#df6b57"/></g><g><path d="m178.546 220.759c-2.255 0-4.488-.998-5.989-2.908-2.598-3.305-2.025-8.09 1.28-10.688l36.954-29.046-60.608-30.983c-2.462-1.259-4.048-3.753-4.142-6.516-.095-2.763 1.316-5.361 3.686-6.785l50.871-30.576-41.298-31.062c-1.838-1.383-2.952-3.522-3.032-5.821-.08-2.298.884-4.51 2.622-6.016l40.344-34.949c3.177-2.752 7.984-2.409 10.737.77 2.752 3.177 2.407 7.984-.769 10.737l-33.221 28.778 42.794 32.185c2.024 1.522 3.158 3.949 3.027 6.478-.132 2.528-1.51 4.825-3.681 6.129l-48.803 29.333 58.99 30.157c2.31 1.181 3.86 3.458 4.111 6.042.251 2.583-.832 5.116-2.872 6.72l-46.303 36.394c-1.394 1.095-3.052 1.627-4.698 1.627z" fill="#365e7d"/></g><g><path d="m232.196 236.5c-3.73 0-6.988-2.745-7.526-6.546l-27.061-191.18h-22.176l-27.06 191.18c-.59 4.163-4.45 7.058-8.603 6.469-4.163-.589-7.059-4.441-6.47-8.603l27.987-197.725c.531-3.754 3.744-6.545 7.536-6.545h35.396c3.792 0 7.005 2.79 7.536 6.545l27.987 197.725c.59 4.163-2.307 8.014-6.47 8.603-.36.052-.721.077-1.076.077z" fill="#2b4d66"/></g><g><path d="m256 477.6c-4.204 0-7.611-3.407-7.611-7.612v-92.036c0-4.204 3.407-7.611 7.611-7.611s7.611 3.407 7.611 7.611v92.036c0 4.205-3.407 7.612-7.611 7.612z" fill="#365e7d"/></g><g><path d="m475.612 148.303c-4.204 0-7.612-3.408-7.612-7.611v-92.527c0-4.204 3.407-7.611 7.612-7.611s7.611 3.408 7.611 7.611v92.527c.001 4.203-3.407 7.611-7.611 7.611z" fill="#df6b57"/></g><path d="m341.947 356.004h67.088v147.062h-67.088z" fill="#c3d5ef"/><path d="m341.947 370.941h67.089v16.699h-67.089z" fill="#b7c8ea"/><path d="m297.675 112.577 194.076-80.22c3.027-1.251 5.47 2.707 2.994 4.852l-119.254 103.283-67.321 17.168z" fill="#c3d5ef"/><path d="m383.312 109.757c-4.121-8.323-12.605-13.589-21.893-13.589h-24.047l-39.698 16.409 10.494 45.083 67.321-17.168 16.125-13.966z" fill="#b7c8ea"/><path d="m102.965 356.004h67.088v147.062h-67.088z" fill="#c3d5ef"/><path d="m102.965 370.941h67.088v16.699h-67.088z" fill="#b7c8ea"/><g><path d="m425.751 226.457c0-7.351-5.959-13.31-13.31-13.31h-312.881c-7.351 0-13.31 5.959-13.31 13.31v111.714h339.501z" fill="#df6b57"/><path d="m425.751 226.457c0-7.351-5.959-13.31-13.31-13.31h-22.816c7.351 0 13.31 5.959 13.31 13.31v111.714h22.816z" fill="#dd544f"/></g><g><g><path d="m125.889 262.922c-4.204 0-7.612-3.408-7.612-7.612v-11.171c0-4.204 3.407-7.611 7.612-7.611 4.204 0 7.611 3.408 7.611 7.611v11.171c0 4.204-3.407 7.612-7.611 7.612z" fill="#e7ecf6"/></g><g><path d="m177.933 262.922c-4.204 0-7.611-3.408-7.611-7.612v-11.171c0-4.204 3.407-7.611 7.611-7.611s7.611 3.408 7.611 7.611v11.171c.001 4.204-3.406 7.612-7.611 7.612z" fill="#e7ecf6"/></g><g><path d="m229.978 262.922c-4.204 0-7.611-3.408-7.611-7.612v-11.171c0-4.204 3.407-7.611 7.611-7.611s7.611 3.408 7.611 7.611v11.171c0 4.204-3.407 7.612-7.611 7.612z" fill="#e7ecf6"/></g><g><path d="m282.023 262.922c-4.204 0-7.612-3.408-7.612-7.612v-11.171c0-4.204 3.407-7.611 7.612-7.611s7.611 3.408 7.611 7.611v11.171c0 4.204-3.407 7.612-7.611 7.612z" fill="#e7ecf6"/></g><g><path d="m334.067 262.922c-4.204 0-7.611-3.408-7.611-7.612v-11.171c0-4.204 3.407-7.611 7.611-7.611s7.612 3.408 7.612 7.611v11.171c0 4.204-3.408 7.612-7.612 7.612z" fill="#e7ecf6"/></g><g><path d="m386.111 262.922c-4.204 0-7.611-3.408-7.611-7.612v-11.171c0-4.204 3.407-7.611 7.611-7.611s7.612 3.408 7.612 7.611v11.171c-.001 4.204-3.408 7.612-7.612 7.612z" fill="#e7ecf6"/></g></g><path d="m303.991 317.874h-95.981v-30.48c0-2.263 1.834-4.097 4.097-4.097h87.787c2.263 0 4.097 1.834 4.097 4.097z" fill="#e7ecf6"/><path d="m299.894 283.297h-18.763c2.263 0 4.097 1.834 4.097 4.097v30.48h18.763v-30.48c0-2.262-1.835-4.097-4.097-4.097z" fill="#d8e2f1"/><path d="m280.147 398.25h-48.293c-4.858 0-8.796-3.938-8.796-8.796v-18.513h65.885v18.513c-.001 4.858-3.939 8.796-8.796 8.796z" fill="#2b4d66"/><path d="m276.948 182.434h74.571v30.713h-74.571z" fill="#365e7d"/><g><g><path d="m59.416 337.725c-4.204 0-7.611-3.407-7.611-7.612v-29.527c0-4.204 3.407-7.611 7.611-7.611s7.611 3.407 7.611 7.611v29.527c.001 4.205-3.407 7.612-7.611 7.612z" fill="#df6b57"/></g><g><path d="m452.585 337.725c-4.204 0-7.612-3.407-7.612-7.612v-29.527c0-4.204 3.407-7.611 7.612-7.611s7.611 3.407 7.611 7.611v29.527c0 4.205-3.407 7.612-7.611 7.612z" fill="#df6b57"/></g></g><path d="m394.471 178.823c.384.775.34 1.694-.116 2.429s-1.26 1.182-2.125 1.182h-115.282v-67.356c0-1.382 1.12-2.502 2.502-2.502h80.666c.951 0 1.82.539 2.242 1.392z" fill="#df6b57"/><path d="m362.357 113.968c-.422-.852-1.291-1.392-2.242-1.392h-21.832l34.592 69.857h19.355c.865 0 1.669-.447 2.125-1.182s.5-1.654.116-2.429z" fill="#dd544f"/><g><g><path d="m308.169 153.26c-4.204 0-7.611-3.408-7.611-7.611v-3.716c0-4.204 3.407-7.611 7.611-7.611s7.612 3.408 7.612 7.611v3.716c0 4.203-3.408 7.611-7.612 7.611z" fill="#e7ecf6"/></g><g><path d="m341.129 153.26c-4.204 0-7.612-3.408-7.612-7.611v-3.716c0-4.204 3.407-7.611 7.612-7.611s7.611 3.408 7.611 7.611v3.716c0 4.203-3.407 7.611-7.611 7.611z" fill="#e7ecf6"/></g></g><path d="m3.806 482.603c0-1.353 1.076-2.461 2.428-2.501 39.623-1.149 40.432-30.411 81.641-30.411 42.034 0 42.034 30.446 84.068 30.446 42.032 0 42.032-30.446 84.064-30.446 42.031 0 42.031 30.446 84.062 30.446 42.032 0 42.032-30.446 84.063-30.446 41.205 0 42.015 29.262 81.633 30.411 1.352.039 2.429 1.146 2.429 2.499v26.897c0 1.382-1.12 2.502-2.502 2.502h-499.385c-1.382 0-2.502-1.12-2.502-2.502z" fill="#d3effb"/><path d="m424.132 449.691c-42.032 0-42.032 30.446-84.063 30.446s-42.031-30.446-84.062-30.446c-42.032 0-42.032 30.446-84.064 30.446-42.034 0-42.034-30.446-84.068-30.446-41.208 0-42.018 29.262-81.639 30.411-1.352.039-2.429 1.146-2.429 2.499v20.464c42.034 0 42.034-30.446 84.068-30.446s42.034 30.446 84.068 30.446c42.032 0 42.032-30.446 84.064-30.446 42.031 0 42.031 30.446 84.062 30.446 42.032 0 42.032-30.446 84.063-30.446s42.031 30.446 84.062 30.446v-20.464c0-1.354-1.076-2.46-2.429-2.499-39.618-1.149-40.428-30.411-81.633-30.411z" fill="#b1e4f9"/><path d="m465.707 368.439c0 1.382-1.12 2.502-2.502 2.502h-414.41c-1.382 0-2.502-1.12-2.502-2.502v-48.063c0-1.382 1.12-2.502 2.502-2.502h414.41c1.382 0 2.502 1.12 2.502 2.502z" fill="#365e7d"/><path d="m443.933 317.874v53.066h19.272c1.382 0 2.502-1.12 2.502-2.502v-48.063c0-1.382-1.12-2.502-2.502-2.502h-19.272z" fill="#2b4d66"/><g><path d="m136.509 444.615c-4.204 0-7.611-3.407-7.611-7.611v-32.356c0-4.204 3.407-7.612 7.611-7.612s7.611 3.407 7.611 7.612v32.356c.001 4.204-3.407 7.611-7.611 7.611z" fill="#365e7d"/></g><g><path d="m375.491 444.615c-4.204 0-7.612-3.407-7.612-7.611v-32.356c0-4.204 3.407-7.612 7.612-7.612s7.611 3.407 7.611 7.612v32.356c.001 4.204-3.407 7.611-7.611 7.611z" fill="#365e7d"/></g></g></svg>