<svg id="Flat" height="512" viewBox="0 0 64 64" width="512" xmlns="http://www.w3.org/2000/svg"><g id="Stroke_copy_2" data-name="Stroke copy 2"><rect fill="#fcbc04" height="6" rx="2" width="58" x="3" y="47"/><path d="m8 47h51a2 2 0 0 1 2 2v1a0 0 0 0 1 0 0h-50a3 3 0 0 1 -3-3 0 0 0 0 1 0 0z" fill="#f9e109"/><path d="m32 16a24 24 0 0 0 -24 24v7h48v-7a24 24 0 0 0 -24-24z" fill="#fcbc04"/><g fill="#e59730"><path d="m28 35h2a4 4 0 0 0 4-4v-14.91c-.66-.09-1.33-.09-2-.09a24 24 0 0 0 -8 1.37v13.63a4 4 0 0 0 4 4z"/><path d="m46.5 32a2 2 0 0 0 2-2v-7.42a24 24 0 0 0 -6-4.16v9.58a4 4 0 0 0 4 4z"/><path d="m38 37a21 21 0 0 1 -20.42-16.18 24 24 0 0 0 -9.58 19.18v7h48v-7a24.65 24.65 0 0 0 -.19-3z"/></g><rect fill="#f9e109" height="24" rx="4" width="10" x="27" y="11"/><path d="m30 24v-12.86a4 4 0 0 0 -3 3.86v16a4 4 0 0 0 4 4h2a4 4 0 0 0 3.89-3.09 8 8 0 0 1 -6.89-7.91z" fill="#fcbc04"/><rect fill="#f9e109" height="17" rx="2" width="4" x="44.5" y="15"/><path d="m46.5 28v-13a2 2 0 0 0 -2 2v13a2 2 0 0 0 4 0 2 2 0 0 1 -2-2z" fill="#fcbc04"/><rect fill="#f9e109" height="17" rx="2" width="4" x="16" y="15"/><path d="m18 28v-13a2 2 0 0 0 -2 2v13a2 2 0 0 0 4 0 2 2 0 0 1 -2-2z" fill="#fcbc04"/><rect fill="#f8664f" height="4" rx="2" width="52" x="6" y="37"/><circle cx="32" cy="38" fill="#57b7eb" r="9"/><path d="m36 42a9 9 0 0 1 -9-9 8.83 8.83 0 0 1 .43-2.74 9 9 0 1 0 13.14 10.48 8.88 8.88 0 0 1 -4.57 1.26z" fill="#4891d3"/><circle cx="32" cy="38" fill="#fcbc04" r="5"/><path d="m32 33a5 5 0 0 0 -4.37 2.63 4.87 4.87 0 0 1 2.37-.63 5 5 0 0 1 5 5 4.87 4.87 0 0 1 -.63 2.37 5 5 0 0 0 -2.37-9.37z" fill="#e59730"/><circle cx="35" cy="38" fill="#f9e109" r="2"/><path d="m44 37h12a2 2 0 0 1 2 2 0 0 0 0 1 0 0h-12a2 2 0 0 1 -2-2 0 0 0 0 1 0 0z" fill="#f89c8d"/><path d="m20 38a8.26 8.26 0 0 1 .07-1h-10.07a2 2 0 0 0 2 2h8.06a8.26 8.26 0 0 1 -.06-1z" fill="#f89c8d"/></g></svg>