<svg height="512pt" viewBox="0 0 512 512" width="512pt" xmlns="http://www.w3.org/2000/svg"><path d="m422 247v115h90v-75zm0 0"/><path d="m386.269531 197v90h125.730469v-75zm0 0" fill="#ffd567"/><path d="m431.269531 197h-115.269531v90h70.269531zm0 0" fill="#ffd567"/><path d="m512 137-31.761719-97.679688-.089843-.304687c-6.785157-21.878906-30.425782-39.015625-53.8125-39.015625h-220.671876c-3.230468 0-6.46875.339844-9.664062.960938l-50 211.039062h366zm0 0" fill="#9dcb3b"/><path d="m151.851562 39.015625-31.851562 97.984375v75h76v-211.039062c-19.933594 3.878906-38.300781 19.199218-44.148438 38.054687zm0 0" fill="#c7d445"/><path d="m451.457031 47.777344c-2.929687-9.15625-15.089843-17.777344-25.121093-17.777344h-220.671876c-3.128906 0-6.464843.839844-9.664062 2.273438l-10 51.226562 10 53.5h284.453125zm0 0" fill="#bcf7fc"/><path d="m180.546875 47.777344-29 89.222656h44.453125v-104.726562c-7.054688 3.160156-13.441406 9.203124-15.453125 15.503906zm0 0" fill="#fff"/><path d="m362 322v115h90v-75zm0 0" fill="#093f61"/><path d="m326.269531 272v90h125.730469v-75zm0 0" fill="#ffbe46"/><path d="m452 287v-75l-31.761719-97.679688-.089843-.304687c-6.785157-21.878906-30.425782-39.015625-53.8125-39.015625h-170.335938l-60 212zm0 0" fill="#2196dc"/><path d="m196 75h-50.335938c-23.390624 0-47.027343 17.136719-53.8125 39.015625l-31.851562 97.984375v75h136zm0 0" fill="#4cbeff"/><path d="m420.453125 212-28.996094-89.222656c-2.929687-9.15625-15.089843-17.777344-25.121093-17.777344h-170.335938l-30 53.5 30 53.5zm0 0" fill="#bcf7fc"/><path d="m196 105h-50.335938c-10.03125 0-22.191406 8.621094-25.117187 17.777344l-29 89.222656h104.453125zm0 0" fill="#fff"/><path d="m0 512h90v-115l-90 40zm0 0" fill="#093f61"/><path d="m302 397v115h90v-75zm0 0"/><path d="m0 362v75h125.730469v-90zm0 0" fill="#ffa725"/><path d="m266.269531 347v90h125.730469v-75zm0 0" fill="#ff8b2a"/><path d="m80.730469 347 45 90h70.269531v-90zm0 0" fill="#ffe7ad"/><path d="m311.269531 347h-115.269531v90h70.269531zm0 0" fill="#ffd567"/><path d="m392 362v-75l-31.761719-97.679688-.089843-.304687c-6.785157-21.878906-30.425782-39.015625-53.8125-39.015625h-110.335938l-60 106 60 106zm0 0" fill="#ff364e"/><path d="m196 150h-110.335938c-23.390624 0-47.027343 17.136719-53.8125 39.015625l-31.851562 97.984375v75h196zm0 0" fill="#ff5233"/><path d="m331.457031 197.777344c-2.929687-9.15625-15.089843-17.777344-25.121093-17.777344h-110.335938l-50 53.5 50 53.5h164.453125zm0 0" fill="#bcf7fc"/><path d="m196 180h-110.335938c-10.03125 0-22.191406 8.621094-25.117187 17.777344l-29 89.222656h164.453125zm0 0" fill="#fff"/></svg>