<svg id="Capa_1" enable-background="new 0 0 512 512" height="512" viewBox="0 0 512 512" width="512" xmlns="http://www.w3.org/2000/svg"><g><g><g><g><g><g><g><g><g><g><g><g><circle cx="256" cy="256" fill="#ffe670" r="256"/></g></g></g></g></g></g></g></g></g></g></g><path d="m255.984 71.693-12.287 13.911 12.287 13.382-10 50.216 39.011 39.011-12.909 35.934-41.278-41.278-13.974-4.684.893 28.638 2.482 240.214 63.471 63.471c113.476-12.202 204.747-98.542 224.393-209.622l-234.84-234.84z" fill="#fcd32b"/><path d="m222.317 182.868h8.491l-28.491-28.606v28.606c0 29.592 24.075 53.667 53.667 53.667v-20c-18.564 0-33.667-15.103-33.667-33.667z" fill="#5ecdf3"/><path d="m255.984 174.691-146.988 146.988c-3.905 3.905-3.905 10.237 0 14.142l8.509 8.509 26.482 12.284 12.616 26.814 8.362 8.362 55.969 55.969c3.905 3.905 10.237 3.905 14.142 0l20.909-20.909 7-138.575z" fill="#ff6c52"/><path d="m255.984 205.851-138.479 138.479 39.097 39.098 99.382-99.382 7.001-40.614z" fill="#00347b"/><path d="m361.427 178.604-24.234-13.26-14.864-25.837-8.509-8.509c-3.905-3.905-10.237-3.905-14.142 0l-43.694 43.694v252.158l169.773-169.773c3.905-3.905 3.905-10.237 0-14.142z" fill="#ff432e"/><g><g><g fill="#002659"><path d="m289.721 254.42h101.938v13.403h-101.938z" transform="matrix(.707 -.707 .707 .707 -84.855 317.385)"/><path d="m308.044 272.743h101.938v13.403h-101.938z" transform="matrix(.707 -.707 .707 .707 -92.445 335.708)"/></g></g></g><path d="m255.984 284.046 105.443-105.442-39.098-39.098-66.345 66.345z" fill="#002659"/><path d="m255.984 79.181 7-9.995-7-10.005c-13.882 0-25.176 11.294-25.176 25.176 0 10.33 6.256 19.222 15.176 23.099v41.746h10l7-34.189-7-25.48c-2.854 0-5.176-2.322-5.176-5.176s2.323-5.176 5.176-5.176z" fill="#5ecdf3"/><path d="m265.984 130.136v-22.68c8.92-3.877 15.176-12.769 15.176-23.099 0-13.882-11.294-25.176-25.176-25.176v20c2.854 0 5.176 2.322 5.176 5.176s-2.322 5.176-5.176 5.176v59.669c18.564 0 33.667 15.103 33.667 33.667 0 16.811-12.385 30.783-28.51 33.272l7.058 18.976c23.724-5.546 41.452-26.858 41.452-52.248 0-26.176-18.838-48.034-43.667-52.733z" fill="#0fa8dc"/><path d="m255.984 337.638c-.725.542-1.432 1.121-2.091 1.78-3.656 3.656-40.394 40.394-44.05 44.05-7.407 7.407-7.407 19.416 0 26.823s19.416 7.407 26.823 0c1.664-1.664 10.185-10.185 19.318-19.318l5.335-28.55z" fill="#bdeaf9"/><path d="m255.984 337.638v53.336l24.733-24.733c7.407-7.407 7.407-19.416 0-26.823-6.748-6.748-17.305-7.328-24.733-1.78z" fill="#5ecdf3"/></g></svg>