<svg id="Layer_1" enable-background="new 0 0 512 512" height="512" viewBox="0 0 512 512" width="512" xmlns="http://www.w3.org/2000/svg"><g><path d="m256 22c-135.31 0-245 109.69-245 245 0 40.7 9.938 79.073 27.5 112.847l1-.235v-29.612c0-7.72 6.28-14 14-14h405c7.72 0 14 6.28 14 14v29.612l1 .235c17.562-33.774 27.5-72.147 27.5-112.847 0-135.31-109.69-245-245-245z" fill="#22b27f"/><g><g fill="#fff"><path d="m120.373 175.922c-38.254 1.118-68.927 32.458-68.927 70.982v89.263c.672-.1 1.354-.168 2.054-.168h66.873z"/><path d="m391.627 175.922v160.078h66.873c.699 0 1.381.068 2.054.168v-89.263c0-38.525-30.673-69.864-68.927-70.983z"/></g><path d="m120.373 175.922c-38.254 1.118-68.927 32.458-68.927 70.982v89.263c.672-.099 1.355-.167 2.054-.167h29.393v-89.095c0-27.094 15.172-50.638 37.48-62.618z" fill="#f8f6f6"/><path d="m392.626 336v-199.374c0-75.456-61.169-136.626-136.626-136.626-75.457 0-136.626 61.17-136.626 136.626v199.374z" fill="#f8f6f6"/><path d="m158.19 136.369c0-31.264 14.669-59.101 37.499-77.007 19.912-28.979 50.708-49.897 86.497-56.845-8.476-1.645-17.228-2.517-26.186-2.517-75.457 0-136.626 61.17-136.626 136.626v199.374h52.374v-149.938c-8.611-14.563-13.558-31.549-13.558-49.693z" fill="#e2e2e2"/><g><path d="m213.438 174.56h85.125c15.764 0 28.671 12.457 29.402 28.042 16.043-17.423 25.845-40.682 25.845-66.233 0-54.019-43.791-97.81-97.81-97.81s-97.81 43.791-97.81 97.81c0 25.551 9.802 48.81 25.845 66.233.731-15.586 13.639-28.042 29.403-28.042z" fill="#0172fb"/></g><g><path d="m213.438 174.56h85.125c7.85 0 14.986 3.095 20.269 8.12 9.566-12.956 15.228-28.97 15.228-46.311 0-43.111-34.948-78.06-78.06-78.06s-78.06 34.948-78.06 78.06c0 17.341 5.662 33.355 15.228 46.311 5.284-5.026 12.42-8.12 20.27-8.12z" fill="#8ac9fe"/></g><g><path d="m213.438 174.56h12.099c-6.349-11.289-9.977-24.314-9.977-38.19 0-36.624 25.228-67.344 59.25-75.763-6.026-1.491-12.323-2.296-18.81-2.296-43.111 0-78.06 34.948-78.06 78.06 0 17.341 5.662 33.354 15.228 46.311 5.284-5.028 12.42-8.122 20.27-8.122z" fill="#60b7ff"/></g><path d="m170 248.56v22c0 5.523 4.477 10 10 10h152c5.523 0 10-4.477 10-10v-22z" fill="#868686"/><path d="m329 213.56v-9.562c0-16.81-13.627-30.438-30.438-30.438h-85.125c-16.81 0-30.438 13.627-30.438 30.438v9.562z" fill="#9c9c9c"/><path d="m253.438 173.56h-40c-16.81 0-30.438 13.627-30.438 30.438v9.562h40v-9.562c0-16.811 13.627-30.438 30.438-30.438z" fill="#868686"/><path d="m369.5 249.56h-227c-2.761 0-5-2.239-5-5v-27c0-2.761 2.239-5 5-5h227c2.761 0 5 2.239 5 5v27c0 2.761-2.239 5-5 5z" fill="#acacac"/><path d="m188 244.56v-27c0-2.761 2.239-5 5-5h-50.5c-2.761 0-5 2.239-5 5v27c0 2.761 2.239 5 5 5h50.5c-2.761 0-5-2.239-5-5z" fill="#9c9c9c"/><g><g><circle cx="236" cy="21.06" fill="#8ac9fe" r="7.5"/></g><g><circle cx="256" cy="21.06" fill="#22b27f" r="7.5"/></g><g><circle cx="276" cy="21.06" fill="#0172fb" r="7.5"/></g></g></g><g><path d="m458.5 335h-405c-8.284 0-15 6.716-15 15v29.858c40.822 78.511 122.893 132.142 217.5 132.142s176.678-53.631 217.5-132.142v-29.858c0-8.284-6.716-15-15-15z" fill="#eaf6ff"/></g><path d="m87 350c0-8.284 6.716-15 15-15h-48.5c-8.284 0-15 6.716-15 15v29.858c12.546 24.13 28.994 45.904 48.5 64.499z" fill="#d8ecfe"/><g><g><path d="m256 512c48.396 0 93.511-14.038 131.506-38.256l-9.268-35.478c-4.628-15.699-19.041-26.477-35.408-26.477h-173.661c-16.367 0-30.78 10.777-35.408 26.477l-9.268 35.478c37.996 24.218 83.111 38.256 131.507 38.256z" fill="#8ac9fe"/><path d="m176.188 438.265c4.628-15.699 19.041-26.477 35.408-26.477h-42.426c-16.367 0-30.78 10.777-35.408 26.477l-9.268 35.478c12.014 7.658 24.743 14.295 38.06 19.795z" fill="#60b7ff"/><g><path d="m284.901 265.354v15.075h3.238c12.589 0 22.83 10.241 22.83 22.83v12.854h9.515c2.103 0 4.107.432 5.929 1.209v-42.275c0-21.734-17.619-39.353-39.353-39.353h-16.227c8.582 7.038 14.068 17.719 14.068 29.66z" fill="#fb8801"/><path d="m191.516 316.112h9.515v-12.854c0-12.589 10.241-22.83 22.83-22.83h62.042v-15.075c0-21.734-17.619-39.353-39.353-39.353h-21.61c-21.734 0-39.353 17.619-39.353 39.353v51.968c1.822-.777 3.826-1.209 5.929-1.209z" fill="#fe9901"/><path d="m191.516 316.112h9.515v-12.854c0-8.115 4.259-15.248 10.655-19.298v-18.607c0-20.98 16.419-38.121 37.108-39.285-.743-.042-1.491-.068-2.245-.068h-21.609c-21.734 0-39.353 17.619-39.353 39.353v51.968c1.822-.777 3.826-1.209 5.929-1.209z" fill="#fb8801"/><g><path d="m201.03 357.499v-42.386h-9.515c-8.927 0-16.163 7.237-16.163 16.163v11.855c0 8.927 7.237 16.163 16.163 16.163h9.56c-.024-.596-.045-1.193-.045-1.795z" fill="#f6a96c"/><path d="m320.485 315.113h-9.515v42.386c0 .602-.021 1.199-.046 1.795h9.56c8.927 0 16.163-7.236 16.163-16.163v-11.855c.001-8.927-7.236-16.163-16.162-16.163z" fill="#ffbd86"/></g><g><path d="m277.867 408.097v-8.525c-3.271.793-6.682 1.223-10.194 1.223h-23.346c-3.511 0-6.923-.431-10.194-1.223v8.525c0 2.039-1.653 3.691-3.691 3.691h-9.932l33.061 50.48c1.192 1.773 3.803 1.767 4.987-.012l32.693-50.468h-9.693c-2.038.001-3.691-1.652-3.691-3.691z" fill="#ffbd86"/></g><g><g><path d="m246.809 418.194h4.381c2.039 0 3.691-1.653 3.691-3.691v-13.707h-10.555c-3.511 0-6.923-.431-10.194-1.223v8.525c0 2.039-1.653 3.691-3.691 3.691h-9.932l33.061 50.48c1.192 1.773 3.803 1.767 4.987-.012l5.748-8.873-20.005-30.546c-1.307-1.996.124-4.644 2.509-4.644z" fill="#f6a96c"/></g></g><g><path d="m267.673 401.796h-23.346c-24.464 0-44.297-19.832-44.297-44.297v-54.24c0-13.161 10.669-23.83 23.83-23.83h64.279c13.161 0 23.83 10.669 23.83 23.83v54.24c.001 24.465-19.832 44.297-44.296 44.297z" fill="#fed2a4"/></g><path d="m221 357.499v-54.24c0-13.161 10.669-23.83 23.83-23.83h-20.97c-13.161 0-23.83 10.669-23.83 23.83v54.24c0 24.464 19.833 44.297 44.297 44.297h20.97c-24.465 0-44.297-19.832-44.297-44.297z" fill="#ffbd86"/></g><g><g><g><path d="m226.469 338.249c-4.143 0-7.5-3.357-7.5-7.5v-12.464c0-4.143 3.357-7.5 7.5-7.5s7.5 3.357 7.5 7.5v12.464c0 4.143-3.358 7.5-7.5 7.5z" fill="#ea9b58"/></g><g><path d="m285.531 338.249c-4.143 0-7.5-3.357-7.5-7.5v-12.464c0-4.143 3.357-7.5 7.5-7.5s7.5 3.357 7.5 7.5v12.464c0 4.143-3.357 7.5-7.5 7.5z" fill="#ea9b58"/></g></g><g><path d="m257.803 380.314c-8.474 0-16.443-3.304-22.441-9.301-2.929-2.93-2.929-7.678 0-10.607 2.93-2.928 7.678-2.928 10.607 0 3.164 3.165 7.367 4.908 11.834 4.908s8.67-1.743 11.834-4.908c2.93-2.928 7.678-2.928 10.607 0 2.929 2.93 2.929 7.678 0 10.607-5.998 5.998-13.968 9.301-22.441 9.301z" fill="#ea9b58"/></g><g><path d="m261.813 351.445h-5.441c-5.635 0-10.22-4.585-10.22-10.22v-12.696c0-4.143 3.357-7.5 7.5-7.5s7.5 3.357 7.5 7.5v7.916h.661c4.143 0 7.5 3.357 7.5 7.5s-3.357 7.5-7.5 7.5z" fill="#ea9b58"/></g></g></g></g></g></svg>