<svg id="flat" height="512" viewBox="0 0 512 512" width="512" xmlns="http://www.w3.org/2000/svg"><path d="m488 157.25v314.75a15.99568 15.99568 0 0 1 -16 16h-360v-448a15.99552 15.99552 0 0 1 16-16h226.75a32.06227 32.06227 0 0 1 22.62 9.37012l101.26 101.25976a32.06483 32.06483 0 0 1 9.37 22.62012z" fill="#548aff"/><g fill="#7dafff"><path d="m184 80h64v16h-64z"/><path d="m152 80h16v16h-16z"/><path d="m208 112h88v16h-88z"/><path d="m152 112h40v16h-40z"/><path d="m296 176h80v16h-80z"/><path d="m256 176h24v16h-24z"/><path d="m485.12 144h-85.12a32.004 32.004 0 0 1 -32-32v-85.12012a31.82277 31.82277 0 0 1 9.37 6.49024l101.26 101.25976a31.82979 31.82979 0 0 1 6.49 9.37012z"/><path d="m392 176h56v16h-56z"/><path d="m232 208h80v16h-80z"/><path d="m184 208h32v16h-32z"/><path d="m328 208h120v16h-120z"/></g><path d="m24 216h120l32 40h240v232h-392z" fill="#c78640"/><path d="m56 440h24v16h-24z" fill="#b1712c"/><path d="m104 440h64v16h-64z" fill="#b1712c"/><path d="m288 424h96v32h-96z" fill="#e3a15b"/></svg>