<svg id="Flat" height="512" viewBox="0 0 512 512" width="512" xmlns="http://www.w3.org/2000/svg"><path d="m205.56 181.97h-.01l-45.55 26.03v72a32 32 0 0 0 32-32v-16l15.39-11.54h49.22l15.39 11.54v16a31.991 31.991 0 0 0 32 32v-72l-45.55-26.03z" fill="#0093b9"/><path d="m384 168h16v32h-16z" fill="#c9c9c7"/><path d="m416 152h16v48h-16z" fill="#c9c9c7"/><path d="m360 344v-144l80-8v160z" fill="#5db9d2"/><path d="m336 344v-96h64v104z" fill="#0093b9"/><path d="m472 352v136h-432v-168z" fill="#0093b9"/><path d="m208 112h48v66.836h-48z" fill="#f6bc1b"/><path d="m128 48h64v48h-64z" fill="#f6bc1b"/><path d="m64 112h48v200h-48z" fill="#f6bc1b"/><circle cx="232" cy="72" fill="#f79726" r="48"/><circle cx="232" cy="200" fill="#f79726" r="32"/><circle cx="232" cy="72" fill="#e8732d" r="24"/><circle cx="88" cy="72" fill="#f79726" r="48"/><circle cx="88" cy="72" fill="#e8732d" r="24"/><path d="m488 368-464-32v-32l464 32z" fill="#c9c9c7"/><path d="m88 392h112v96h-112z" fill="#c9c9c7"/><path d="m88 448h112v16h-112z" fill="#b2b1b4"/><path d="m88 416h112v16h-112z" fill="#b2b1b4"/><g fill="#f8bc1e"><path d="m224 400h16v16h-16z"/><path d="m256 400h16v16h-16z"/><path d="m288 400h16v16h-16z"/><path d="m360 272h16v16h-16z"/></g><path d="m224 192h16v16h-16z" fill="#e8732d"/><path d="m16 480h480v16h-480z" fill="#c9c9c7"/><path d="m416 152h16v16h-16z" fill="#eb5849"/></svg>