<svg id="flat" height="512" viewBox="0 0 512 512" width="512" xmlns="http://www.w3.org/2000/svg"><path d="m341.65723 274.34326a8.00076 8.00076 0 0 0 -5.65723-2.34326h-52.686l74.34327-74.34326-11.31446-11.31348-85.65681 85.65674h-20.686v-48h-16v52.686l-45.65723 45.65722 11.31446 11.31348 45.65625-45.6567h97.373l29.65625 29.65674 11.31446-11.31348z" fill="#d1e4ff"/><path d="m416 40a32 32 0 0 1 32 32v40a16 16 0 0 1 -16 16h-32a16 16 0 0 1 -16-16v-40a32 32 0 0 1 32-32z" fill="#8098ab"/><path d="m312 360h176v112h-176z" fill="#ffc431"/><path d="m88 448 40 40h16l16-16-48-48z" fill="#4976f2"/><path d="m58.059 391.716h67.882v56.569h-67.882z" fill="#548aff" transform="matrix(.707 -.707 .707 .707 -270.039 188.069)"/><path d="m232 368-96 48-40-40 48-96z" fill="#4976f2"/><path d="m48 424-8 24 24 24 24-8z" fill="#4f7ff7"/><path d="m96 24h200v176h-200z" fill="#f78e00"/><path d="m120 152h152v16h-152z" fill="#e87000"/><path d="m184 56v64l48-32z" fill="#ffc431"/><path d="m368 128h96v48h-96z" fill="#ffc431"/><path d="m400 176h32v80h-32z" fill="#ffb401"/><path d="m408 256h16v24h-16z" fill="#ffa100"/><circle cx="400" cy="416" fill="#8be0e8" r="32"/><path d="m400 456a40 40 0 1 1 40-40 40.04552 40.04552 0 0 1 -40 40zm0-64a24 24 0 1 0 24 24 24.0275 24.0275 0 0 0 -24-24z" fill="#ffe28f"/><path d="m360 360 16-32h48l16 32z" fill="#ffb401"/><path d="m352 360h-32v-8a8.00008 8.00008 0 0 1 8-8h16a8.00008 8.00008 0 0 1 8 8z" fill="#ffa100"/><path d="m480 360h-32v-8a8.00008 8.00008 0 0 1 8-8h16a8.00008 8.00008 0 0 1 8 8z" fill="#ffa100"/><circle cx="352" cy="448" fill="#ffe28f" r="8"/><path d="m448 376h16v16h-16z" fill="#ffe28f"/><circle cx="232" cy="280" fill="#ffc431" r="16"/><path d="m232 304a24 24 0 1 1 24-24 24.02718 24.02718 0 0 1 -24 24zm0-32a8 8 0 1 0 8 8 8.00917 8.00917 0 0 0 -8-8z" fill="#ffe28f"/><circle cx="168" cy="160" fill="#ffe28f" r="16"/><path d="m168 184a24 24 0 1 1 24-24 24.02718 24.02718 0 0 1 -24 24zm0-32a8 8 0 1 0 8 8 8.00917 8.00917 0 0 0 -8-8z" fill="#ffc431"/></svg>