<svg id="Flat" height="512" viewBox="0 0 512 512" width="512" xmlns="http://www.w3.org/2000/svg"><circle cx="256" cy="104" fill="#ffd33a" r="80"/><path d="m192 432h-.087a8 8 0 0 1 -7.266-4.849l-43.347-101.138-23.644 23.644a8 8 0 0 1 -13.32-3.358l-19.616-65.393-54.473 68.094a8 8 0 1 1 -12.494-10l64-80a8 8 0 0 1 13.91 2.7l20.151 67.171 22.529-22.529a8 8 0 0 1 13.01 2.506l40.862 95.344 72.5-159.5a8 8 0 0 1 14.75.439l34.371 89.365 95.456-146.856a8 8 0 0 1 11.358-2.15l46.439 33.17 13.15-52.6a8 8 0 1 1 15.522 3.88l-16 64a8 8 0 0 1 -12.411 4.57l-49.2-35.142-99.442 152.992a8 8 0 0 1 -14.175-1.488l-33.148-86.185-72.1 158.624a8 8 0 0 1 -7.285 4.689z" fill="#eb423f"/><path d="m208 320a8 8 0 0 1 -7.89-6.685l-13.444-80.666-53.008 53.008a8 8 0 0 1 -10.655.59l-36.45-29.16-59.743 22.4a8 8 0 1 1 -5.618-14.98l64-24a7.993 7.993 0 0 1 7.808 1.246l34.408 27.527 58.937-58.937a8 8 0 0 1 13.548 4.342l13.641 81.844 53.2-46.55a8.006 8.006 0 0 1 7.8-1.569l42.066 14.026 52.647-82.731a8 8 0 0 1 13.772.464l39.514 72.443 25.944-71.346a8 8 0 1 1 15.038 5.468l-32 88a8 8 0 0 1 -14.542 1.1l-41.507-76.1-48.717 76.566a8.006 8.006 0 0 1 -9.279 3.295l-43.652-14.551-60.55 52.982a8 8 0 0 1 -5.268 1.974z" fill="#3dc285"/><path d="m488 440a8 8 0 0 0 -8 8v32h-16v-40a8 8 0 0 0 -16 0v40h-16v-64a8 8 0 0 0 -16 0v64h-16v-16a8 8 0 0 0 -16 0v16h-24v-32a8 8 0 0 0 -16 0v32h-16v-32a8 8 0 0 0 -16 0v32h-16v-40a8 8 0 0 0 -16 0v40h-16v-64a8 8 0 0 0 -16 0v64h-16v-16a8 8 0 0 0 -16 0v16h-24v-16a8 8 0 0 0 -16 0v16h-16v-40a8 8 0 0 0 -16 0v40h-16v-72a8 8 0 0 0 -16 0v72h-16v-56a8 8 0 0 0 -16 0v56h-16v-32a8 8 0 0 0 -16 0v32h-16v-456a8 8 0 0 0 -16 0v464a8 8 0 0 0 8 8h464a8 8 0 0 0 8-8v-40a8 8 0 0 0 -8-8z" fill="#d0d2d4"/><g fill="#ffb632"><path d="m256 16a88 88 0 1 0 88 88 88.105 88.105 0 0 0 -88-88zm0 160a72 72 0 1 1 72-72 72.084 72.084 0 0 1 -72 72z"/><path d="m280 120a24.022 24.022 0 0 1 -16 22.62v9.38a8 8 0 0 1 -16 0v-8h-8a8 8 0 0 1 0-16h16a8 8 0 0 0 0-16 24 24 0 0 1 -8-46.62v-9.38a8 8 0 0 1 16 0v8h8a8 8 0 0 1 0 16h-16a8 8 0 0 0 0 16 24.032 24.032 0 0 1 24 24z"/></g></svg>